<svg width="8" height="8" viewBox="0 0 8 8" xmlns="http://www.w3.org/2000/svg">
<path d="M4.38882 4.00268L6.92067 1.47941C7.02644 1.37264 7.02644 1.19967 6.92067 1.09289C6.81676 0.984214 6.64517 0.98095 6.53727 1.0856L4.00543 3.60888L1.50613 1.0856C1.45489 1.03096 1.38359 1 1.30901 1C1.23442 1 1.16313 1.03096 1.11189 1.0856C1.0181 1.18876 1.0181 1.34708 1.11189 1.45024L3.61118 3.96987L1.07933 6.4895C0.973555 6.59627 0.973555 6.76924 1.07933 6.87601C1.12969 6.92801 1.19895 6.95699 1.27103 6.95623C1.3445 6.96224 1.41734 6.93863 1.47358 6.89059L4.00543 4.36732L6.53727 6.91977C6.58763 6.97177 6.65689 7.00075 6.72897 6.99999C6.80097 7.00033 6.87007 6.97141 6.92067 6.91977C7.02644 6.81299 7.02644 6.64002 6.92067 6.53325L4.38882 4.00268Z" />
</svg>
