<svg width="32" height="32" viewBox="0 0 32 32" xmlns="http://www.w3.org/2000/svg">
<path d="M17.3733 7.28002C17.3661 7.8293 16.9226 8.27284 16.3733 8.28002C15.824 8.27284 15.3805 7.8293 15.3733 7.28002V3.66669C15.3733 3.1144 15.821 2.66669 16.3733 2.66669C16.9256 2.66669 17.3733 3.1144 17.3733 3.66669V7.28002Z" />
<path fill-rule="evenodd" clip-rule="evenodd" d="M16.4666 9.50669H16.3733C13.8265 9.46052 11.4761 10.8696 10.3166 13.1375C9.15708 15.4055 9.39124 18.1359 10.92 20.1734C12.2517 21.9554 12.993 24.1092 13.04 26.3334C13.2527 28.0123 14.681 29.2709 16.3733 29.2709C18.0656 29.2709 19.4938 28.0123 19.7066 26.3334C19.636 24.1987 20.2995 22.1044 21.5866 20.4C22.4951 19.2613 23.0055 17.8563 23.04 16.4C23.0857 12.6979 20.1667 9.63682 16.4666 9.50669ZM16.3733 27.6667C15.6369 27.6667 15.04 27.0697 15.04 26.3334V25.9867H17.7866V26.36C17.78 26.7233 17.6254 27.0681 17.3587 27.3148C17.0919 27.5615 16.736 27.6885 16.3733 27.6667Z" />
<path d="M16.3733 9.50669L16.44 11.5067C18.238 11.5336 19.8645 12.5799 20.6346 14.205C21.4046 15.83 21.1844 17.7514 20.0666 19.16C18.9872 20.5564 18.2641 22.1948 17.96 23.9334H14.76C14.3589 22.1406 13.5967 20.4484 12.52 18.96C11.4968 17.5196 11.3638 15.6285 12.1752 14.059C12.9866 12.4896 14.6065 11.5047 16.3733 11.5067V9.50669Z" />
<path d="M26.12 6.49335C25.7295 6.10342 25.0971 6.10342 24.7066 6.49335L22.2133 8.97335C21.8289 9.37124 21.8289 10.0021 22.2133 10.4C22.6165 10.7711 23.2368 10.7711 23.64 10.4L26.12 7.90669C26.5099 7.51626 26.5099 6.88378 26.12 6.49335Z" />
<path d="M25.3333 14.7067H28.84C29.3922 14.7067 29.84 15.1544 29.84 15.7067C29.84 16.259 29.3922 16.7067 28.84 16.7067H25.3333C24.781 16.7067 24.3333 16.259 24.3333 15.7067C24.3333 15.1544 24.781 14.7067 25.3333 14.7067Z" />
<path d="M7.17329 14.7067H3.66663C3.11434 14.7067 2.66663 15.1544 2.66663 15.7067C2.66663 16.259 3.11434 16.7067 3.66663 16.7067H7.17329C7.72558 16.7067 8.17329 16.259 8.17329 15.7067C8.17329 15.1544 7.72558 14.7067 7.17329 14.7067Z" />
<path d="M10.6858 9.68669C10.6858 9.95497 10.578 10.212 10.3866 10.4C10.1963 10.5815 9.94292 10.6819 9.67996 10.68C9.41726 10.6805 9.16435 10.5803 8.97329 10.4L6.49329 7.90669C6.22576 7.65739 6.11563 7.28195 6.20611 6.92764C6.2966 6.57332 6.57326 6.29666 6.92758 6.20617C7.28189 6.11569 7.65733 6.22582 7.90663 6.49335L10.3866 8.97335C10.578 9.16137 10.6858 9.4184 10.6858 9.68669Z" />
</svg>
