<svg width="33" height="32" viewBox="0 0 33 32" xmlns="http://www.w3.org/2000/svg">
<path fill-rule="evenodd" clip-rule="evenodd" d="M28.3073 20.6713L20.7873 6.75134C19.848 5.05366 18.0608 4 16.1206 4C14.1804 4 12.3932 5.05366 11.4539 6.75134L3.81393 20.658C2.91633 22.3097 2.95449 24.3119 3.91439 25.9281C4.87428 27.5443 6.61414 28.5359 8.49393 28.538H23.6139C25.4921 28.538 27.2318 27.5502 28.1941 25.9372C29.1564 24.3243 29.1994 22.3241 28.3073 20.6713ZM14.9739 12.9913C14.9739 12.4391 15.4216 11.9913 15.9739 11.9913C16.5262 11.9913 16.9739 12.4391 16.9739 12.9913V17.1113C16.9739 17.6636 16.5262 18.1113 15.9739 18.1113C15.4216 18.1113 14.9739 17.6636 14.9739 17.1113V12.9913ZM15.9873 21.9913C16.5395 21.9913 16.9873 21.5436 16.9873 20.9913L16.9739 20.978C16.9739 20.4331 16.5322 19.9913 15.9873 19.9913C15.438 19.9985 14.9944 20.4421 14.9873 20.9913C14.9873 21.5436 15.435 21.9913 15.9873 21.9913Z" />
</svg>
