<svg width="33" height="32" viewBox="0 0 33 32" xmlns="http://www.w3.org/2000/svg">
<path fill-rule="evenodd" clip-rule="evenodd" d="M9.08964 2.66669H23.9163C27.2938 2.78261 29.9411 5.60882 29.8363 8.98669V17.68C29.8865 19.3114 29.2844 20.8955 28.1633 22.0816C27.0422 23.2678 25.4946 23.9582 23.863 24H11.1696C10.2912 24.0182 9.4582 24.3938 8.86297 25.04L5.70297 28.4134C5.43525 28.7053 5.05907 28.8741 4.66297 28.88C4.25387 28.8696 3.86592 28.6961 3.58545 28.3981C3.30498 28.1001 3.15527 27.7023 3.16964 27.2934V8.98669C3.06479 5.60882 5.71213 2.78261 9.08964 2.66669ZM23.9163 22C26.1896 21.885 27.942 19.9537 27.8363 17.68V8.98669C27.942 6.71298 26.1896 4.78171 23.9163 4.66669H9.08963C6.81638 4.78171 5.06393 6.71298 5.16963 8.98669V26.0534L7.34297 23.68C8.33686 22.6228 9.71865 22.0161 11.1696 22H23.9163Z" />
<path d="M11.503 11.6667H18.1696C18.7219 11.6667 19.1696 11.219 19.1696 10.6667C19.1696 10.1144 18.7219 9.66669 18.1696 9.66669H11.503C10.9507 9.66669 10.503 10.1144 10.503 10.6667C10.503 11.219 10.9507 11.6667 11.503 11.6667Z" />
<path d="M21.503 15H11.503C10.9507 15 10.503 15.4477 10.503 16C10.503 16.5523 10.9507 17 11.503 17H21.503C22.0553 17 22.503 16.5523 22.503 16C22.503 15.4477 22.0553 15 21.503 15Z" />
</svg>
